# xmcd CD database file
#
# Track frame offsets:
#	150
#	25696
#	33680
#	77009
#	90713
#	126872
#	140352
#	151500
#	176022
#	206568
#	222821
#	251137
#
# Disc length: 3574 seconds
#
# Revision: 0
# Processed by: cddbd v1.5.2PL0 Copyright (c) Steve Scherf et al.
# Submitted via: CDex 1.51
#
DISCID=9c0df40c
DTITLE=Limbo - Limbo
DYEAR=2005
DGENRE=Jazz
TTITLE0=Takto!
TTITLE1=Vzpominka na Afriku
TTITLE2=Frygidni muzi
TTITLE3=Mr. Long
TTITLE4=Balada o starych casech
TTITLE5=4 v bazaru
TTITLE6=Franta
TTITLE7=Karlikovi z lasky
TTITLE8=Dali na pastve
TTITLE9=Nahy rabin (Krasa dekujem.)
TTITLE10=Blues ze sna
TTITLE11=Tuseni
EXTD=YEAR: 2005
EXTT0=
EXTT1=
EXTT2=
EXTT3=
EXTT4=
EXTT5=
EXTT6=
EXTT7=
EXTT8=
EXTT9=
EXTT10=
EXTT11=
PLAYORDER=
